<svg width="98" height="147" viewBox="0 0 98 147" fill="none" xmlns="http://www.w3.org/2000/svg">
<path d="M18.1429 6C27.2467 13.2547 33.5505 16.0469 22.7113 44.5C15.2114 79 22.6686 84.5721 40.2113 78.5C47.5955 67.2555 47.7992 57.9945 36.2113 32.5L49.2113 0L61.7113 32.5C53.0536 55.5485 50.1338 67.2224 59.7113 78.5C76.0068 82.313 81.7121 79.2239 72.7113 44.5C64.9542 18.5655 69.307 13.2373 79.2113 6C72.7113 21 80.7113 31 90.2113 44.5C109.211 78 86.2113 96 59.7113 96V146.5H40.2113V96C2.21136 99 -9.7886 68 8.21136 44.5C26.2113 21 21.9549 23.8217 18.1429 6Z" fill="#FF9100"/>
</svg>
